<svg width="160" height="32" xmlns="http://www.w3.org/2000/svg"><g fill="#FFF" fill-rule="evenodd"><path d="M44.144 25.195c-.79-.02-1.574-.407-2.335-1.177l-7.958-8.058c-.004.004 1.883 1.897 1.88 1.9l-.002.002-1.878-1.902-6.513 6.596c4.188 4.24 8.126 8.22 8.171 8.266a3.099 3.099 0 003.475.658 3.173 3.173 0 001.051-.707l1.822-1.845 1.482-1.5c.273-.278.492-.607.63-.973a2.83 2.83 0 00.173-.802c.011-.155.011-.308.002-.458M14.905 14.106c.833-.844 2.087-.986 3.15-.593l6.725-6.81-5.597-5.67A3.098 3.098 0 0015.006.81l-.016.013a2.363 2.363 0 00-.193.173L1.004 14.968l-.033.031a3.195 3.195 0 00.017 4.495l.003.003.004.004.054.058 3.302 3.344c.228.23.659.522.96.638.25.096.51.154.792.175.154.012.304.012.453.003.02-.801.401-1.594 1.162-2.364l7.187-7.249z"/><path d="M44.456 21.46c.22.23.406.463.56.697a3.76 3.76 0 01.54 1.953c0 .445-.076.871-.216 1.267l2.752-2.786 1.943-1.968 1.032-1.045.036-.037a.424.424 0 01.01-.01l.002-.003.017-.017a3.18 3.18 0 00.91-2.421 3.2 3.2 0 00-.036-.353 3.16 3.16 0 00-.878-1.756L37.446 1.14l-.142-.144a2.326 2.326 0 00-.253-.221 3.098 3.098 0 00-4.133.258L10.278 23.96a4.932 4.932 0 01-.762.638 3.66 3.66 0 01-3.18.329l5.701 5.774.037.036.01.01.003.003.016.017a3.097 3.097 0 002.546.91 3.094 3.094 0 001.928-.914c.078-.079 11.805-11.933 16.325-16.531 1.135-1.115 3.127-1.309 4.294-.127l3.817 3.865 3.269 3.31M79.152 9.783c3.179 0 5.17 1.943 5.17 6.468v8.603a.03.03 0 01-.03.03h-3.865a.03.03 0 01-.03-.03v-7.639c0-2.373-.718-3.857-2.564-3.857-1.655 0-2.989 1.44-2.989 4.095v7.402a.03.03 0 01-.03.03H70.95a.03.03 0 01-.03-.03v-7.64c0-2.373-.763-3.856-2.594-3.856-1.758 0-3.091 1.439-3.091 4.094v7.387a.03.03 0 01-.03.03h-3.866a.03.03 0 01-.03-.03V10.066a.03.03 0 01.03-.03h1.992c1.052 0 1.904.863 1.904 1.928 0 .017.013.03.03.03a.03.03 0 00.023-.01c1.157-1.433 2.75-2.2 4.371-2.2 1.928 0 3.448.737 4.343 2.372a.03.03 0 00.026.016h.012a.03.03 0 00.023-.011c1.202-1.55 3-2.378 5.09-2.378zM91.156 15.88h6.46c-.395-1.572-1.465-2.596-3.164-2.596-1.597 0-2.842.875-3.296 2.596zm10.357 1.44c0 .474-.03 1.157-.102 1.423H91.14c.469 1.766 1.86 2.834 3.736 2.849.941.009 1.74-.249 2.402-.678a1.937 1.937 0 012.388.217l1.26 1.188c-1.245 1.602-3.384 2.803-6.329 2.803-4.292 0-7.544-3.055-7.544-7.684 0-4.51 3.106-7.655 7.266-7.655 4.307 0 7.193 3.19 7.193 7.537zM112.81 9.783c.118 0 .22 0 .308.015v4.362a16.04 16.04 0 00-1.04-.045c-2.417 0-3.736 1.662-3.736 3.872v6.884h-3.925V10.036h1.972c1.079 0 1.953.885 1.953 1.978v.202h.044c1.113-1.572 2.696-2.433 4.425-2.433zM122.476 25.123c-4.337 0-7.53-3.1-7.53-7.655s3.179-7.685 7.72-7.685c2.33 0 4.746.965 6.226 2.849l-1.391 1.214a1.926 1.926 0 01-2.301.185 4.35 4.35 0 00-2.373-.672c-2.344 0-3.896 1.676-3.896 4.08 0 2.432 1.596 4.109 3.926 4.109a4.56 4.56 0 002.353-.632 1.929 1.929 0 012.271.226l1.47 1.311c-1.26 1.483-3.53 2.67-6.475 2.67zM138.682 21.562c2.124 0 3.809-1.69 3.809-4.094 0-2.433-1.64-4.11-3.81-4.11-2.284 0-3.823 1.766-3.823 4.11 0 2.3 1.583 4.095 3.824 4.095zm0 3.56c-4.659 0-7.794-3.233-7.794-7.654 0-4.435 3.135-7.685 7.794-7.685 4.556 0 7.794 3.13 7.794 7.685 0 4.54-3.238 7.655-7.794 7.655zM154.26 25.123c-2.344 0-4.336-.757-5.933-2.18l.76-1.095a1.932 1.932 0 012.535-.6c.803.454 1.67.686 2.667.686 1.143 0 1.802-.505 1.802-1.232 0-.682-.761-1.023-2.666-1.647-2.417-.8-4.512-1.958-4.512-4.82 0-2.686 2.286-4.451 5.274-4.451 2.037 0 3.692.564 5.362 1.87l-.797 1.216a1.936 1.936 0 01-2.514.67c-.72-.376-1.444-.552-2.094-.552-.645 0-1.436.341-1.436 1.113 0 .623.762 1.053 2.197 1.602 3.18 1.187 5.04 1.884 5.04 4.806 0 2.626-1.846 4.614-5.684 4.614h-.001z"/></g></svg>