<svg height="35" viewBox="0 0 176 35" width="176" xmlns="http://www.w3.org/2000/svg"><g fill="none" fill-rule="evenodd" transform=""><path d="m51.5565903 25.7343801c-1.4859255 1.3934345-4.1397627 1.6361931-5.5824772.1937214 0 0-24.8621241-24.86212412-24.9201434-24.92038619-1.2429242-1.24292414-3.1990731-1.33541517-4.5495394-.28062896-.0162648.01238068-.0322869.02500413-.0483089.03787034-.0058262.00436966-.0116524.00922483-.0172359.01383724-.0735558.05874759-.1451696.12089379-.2126565.18862345-3.8236911 3.82369103-13.91929383 13.92293522-15.18212417 15.18576552-.01189517.0116524-.02427586.0225765-.03592828.034229-1.34415448 1.3441544-1.34415448 3.5236413 0 4.8677958.01068138.0109242.02209104.0208773.03277242.0313159.01335172.0135945.02573241.0276745.03908413.0407834.07695449.0771973 7.38884414 7.3890869 7.38884414 7.3890869-1.43955862-1.4398013-1.5810869-3.8426262-.13837241-5.2853407l8.01419037-8.0141903c1.2849214-1.2849214 3.47776-1.0744497 4.7265103.1374014 4.9758235 4.9976717 17.8828138 17.8828138 17.9687504 17.9687503 1.0341517 1.0343945 2.5623172 1.2718124 3.824662.7146814.4211862-.1711448.8159118-.4272552 1.1574731-.7688166.0769545-.0769544 7.5344993-7.5344993 7.5344993-7.5344993" fill="#00cc62"/><g fill="#663991"><path d="m5.68705766 25.7343801c1.48592551 1.3934345 4.13976275 1.6361931 5.58247724.1937214l24.9201434-24.92038619c1.2429242-1.24292414 3.1990731-1.33541517 4.5495394-.28062896.0162648.01238068.0322869.02500413.0483089.03787034.0058262.00436966.0114097.00922483.0172359.01383724.0735558.05874759.1451696.12089379.2126565.18862345 3.8236911 3.82369103 13.9192938 13.92293522 15.1821242 15.18576552.0118951.0116524.0242758.0225765.0359282.034229 1.3441545 1.3441544 1.3441545 3.5236413 0 4.8677958-.0106813.0109242-.022091.0208773-.0330151.0313159-.013109.0135945-.0254897.0276745-.0388414.0407834-.0769545.0771973-7.3888441 7.3890869-7.3888441 7.3890869 1.4395586-1.4398013 1.5810869-3.8426262.1383724-5.2853407l-8.0141904-8.0141903c-1.2849214-1.2849214-3.47776-1.0744497-4.7265103.1374014-4.9758235 4.9976717-17.8828138 17.8828138-17.9687504 17.9687503-1.0341517 1.0343945-2.56256 1.2718124-3.824662.7146814-.4211862-.1711448-.8159118-.4272552-1.1574731-.7688166-.0769545-.0769544-7.53449934-7.5344993-7.53449934-7.5344993"/><path d="m87.0224596 10.4984364c3.4925683 0 5.68128 2.1086014 5.68128 7.0171807v9.3343117c0 .0184497-.0145655.0330152-.0327724.0330152h-4.2475476c-.0182069 0-.0330152-.0145655-.0330152-.0330152v-8.2877793c0-2.5751834-.78848-4.1846731-2.8167283-4.1846731-1.8185048 0-3.2835531 1.5611807-3.2835531 4.44224v8.0304552c0 .0184496-.0148082.0332579-.0330151.0332579h-4.2470621c-.0182069 0-.0330152-.0148083-.0330152-.0332579v-8.2877793c0-2.5751835-.8372745-4.1846731-2.8490152-4.1846731-1.9313875 0-3.3964358 1.5614234-3.3964358 4.44224v8.0146758c0 .0182069-.0148083.0330152-.0330152.0330152h-4.2473048c-.0182069 0-.0330152-.0148083-.0330152-.0330152v-16.0291089c0-.0184497.0148083-.0330152.0330152-.0330152h2.188469c1.1552882 0 2.091851.9365628 2.091851 2.091851 0 .0182069.0148083.0330152.0330152.0330152.0099531 0 .0194206-.0043697.0254896-.0121379 1.2705986-1.5536552 3.0204028-2.3863173 4.8024938-2.3863173 2.118069 0 3.7880055.7998897 4.7709352 2.5744552.0058262.0104386.0167503.0172359.0288883.0172359h.0128662c.0101958 0 .0196634-.0048552.0257324-.0126235 1.3198786-1.6820745 3.2954483-2.5790676 5.5914593-2.5790676z"/><path d="m100.211098 17.1136088h7.098263c-.435024-1.7058648-1.609733-2.8167282-3.476789-2.8167282-1.754417 0-3.122605.9499144-3.621474 2.8167282zm11.379311 1.5614235c0 .5146483-.032044 1.2555476-.11264 1.5449158h-11.28245c.514891 1.9153656 2.043785 3.074538 4.104077 3.0903173 1.034152.0097103 1.911725-.2697048 2.639758-.7350731.826593-.5282428 1.904927-.4335669 2.622764.2347476l1.384695 1.2890482c-1.368188 1.7383945-3.717848 3.0420083-6.953092 3.0420083-4.7158294 0-8.2887508-3.3153545-8.2887508-8.3370593 0-4.8928 3.4119724-8.3050152 7.9831168-8.3050152 4.732094 0 7.902765 3.4605242 7.902765 8.1765959z"/><path d="m124.003215 10.4989219c.128663 0 .241303 0 .33792.0160221v4.7323366c-.434537-.0322869-.90112-.0485518-1.142907-.0485518-2.655537 0-4.10432 1.8027255-4.10432 4.200938v7.4679834h-4.313578v-16.0951393h2.167106c1.18539 0 2.146472.9610814 2.146472 2.1464717v.2194538h.048309c1.222775-1.7058648 2.961412-2.6395145 4.860756-2.6395145z"/><path d="m134.621526 27.1409236c-4.764138 0-8.272728-3.3636635-8.272728-8.3050152 0-4.941109 3.492568-8.3373021 8.481986-8.3373021 2.558919 0 5.214698 1.0462897 6.840452 3.09056l-1.528408 1.3172083c-.708855.6107807-1.735967.6984166-2.528331.2007614-.722207-.4534731-1.592254-.7292469-2.606499-.7292469-2.575184 0-4.281048 1.8185048-4.281048 4.4262179 0 2.6395145 1.754416 4.4582621 4.313335 4.4582621 1.024441 0 1.892303-.2784441 2.585865-.6857931.79552-.4670676 1.802482-.3636524 2.49483.2461572l1.61483 1.4218373c-1.384209 1.6092469-3.878797 2.8965958-7.114284 2.8965958z"/><path d="m152.426948 23.2783426c2.333882 0 4.184674-1.8350124 4.184674-4.4424827 0-2.6395145-1.802483-4.4580193-4.184674-4.4580193-2.510609 0-4.200695 1.9151227-4.200695 4.4580193 0 2.4953158 1.738395 4.4427255 4.200695 4.4427255zm0 3.8625324c-5.11808 0-8.562339-3.5083476-8.562339-8.3047724 0-4.8119614 3.444259-8.337302 8.562339-8.337302 5.005926 0 8.562825 3.3961931 8.562825 8.337302 0 4.9253297-3.556899 8.3050152-8.562825 8.3050152z"/><path d="m169.542135 27.1409236c-2.575183 0-4.764138-.8205242-6.518312-2.36544l.834605-1.1878179c.628016-.8935945 1.831371-1.1810207 2.785898-.6493794.881942.4911007 1.833798.7428414 2.930096.7428414 1.25579 0 1.979939-.5476634 1.979939-1.3361434 0-.7404138-.837031-1.110378-2.929125-1.7864607-2.655537-.8690759-4.957131-2.1243807-4.957131-5.23072 0-2.9133462 2.510852-4.8287117 5.794163-4.8287117 2.237506 0 4.056253.6119944 5.891266 2.0282482l-.875631 1.3203642c-.602769.9086455-1.7935 1.2254455-2.762835.726091-.79018-.4068634-1.585942-.5979145-2.300381-.5979145-.70837 0-1.577446.3702069-1.577446 1.2069959 0 .67584.837032 1.1426648 2.414235 1.7381517 3.492811 1.2878345 5.536596 2.0440276 5.536596 5.2149407 0 2.8487724-2.028006 5.0051972-6.244723 5.0051972z"/></g></g></svg>