<svg height="34" width="170" xmlns="http://www.w3.org/2000/svg"><mask id="a" fill="#fff"><path d="M0 .007h49.826v33.177H0z" fill-rule="evenodd"/></mask><mask id="b" fill="#fff"><path d="M.06.007h49.825v33.177H.06z" fill-rule="evenodd"/></mask><mask id="c" fill="#fff"><path d="M.01.073h12.335v16.084H.01z" fill-rule="evenodd"/></mask><g fill="none" fill-rule="evenodd"><path d="M49.826 24.877c-1.436 1.347-4.001 1.581-5.395.187L20.347.98a3.327 3.327 0 0 0-4.443-.234l-.017.013c-.071.057-.14.117-.205.182L1.009 15.618l-.035.033a3.326 3.326 0 0 0 0 4.704l.032.03.038.04 7.14 7.14c-1.39-1.39-1.527-3.713-.133-5.107l7.745-7.746c1.242-1.241 3.361-1.038 4.568.133 4.809 4.83 17.282 17.283 17.365 17.366 1 1 2.477 1.229 3.697.69a3.375 3.375 0 0 0 1.118-.742l7.282-7.282" fill="#00cc62" mask="url(#a)" transform="translate(0 .107)"/><g fill="#fff"><path d="M.06 24.877c1.436 1.347 4 1.581 5.395.187L29.538.98a3.327 3.327 0 0 1 4.444-.234l.017.013c.07.057.14.117.205.182l14.673 14.677.034.033a3.326 3.326 0 0 1 0 4.704l-.032.03-.037.04-7.141 7.14c1.391-1.39 1.528-3.713.134-5.107l-7.746-7.746c-1.241-1.241-3.36-1.038-4.567.133-4.81 4.83-17.283 17.283-17.366 17.366-1 1-2.476 1.229-3.696.69a3.375 3.375 0 0 1-1.119-.742L.06 24.877" mask="url(#b)" transform="translate(5.436 .107)"/><path d="M84.101 10.26c3.375 0 5.49 2.037 5.49 6.78v9.022a.032.032 0 0 1-.031.032h-4.105a.032.032 0 0 1-.032-.032v-8.01c0-2.489-.762-4.044-2.722-4.044-1.758 0-3.173 1.509-3.173 4.293v7.761a.032.032 0 0 1-.032.032H75.39a.032.032 0 0 1-.032-.032v-8.01c0-2.488-.809-4.044-2.753-4.044-1.867 0-3.283 1.51-3.283 4.293v7.746a.032.032 0 0 1-.031.032h-4.105a.032.032 0 0 1-.032-.032V10.556c0-.018.014-.032.032-.032h2.115c1.116 0 2.021.905 2.021 2.022a.032.032 0 0 0 .057.02c1.228-1.502 2.92-2.306 4.641-2.306 2.047 0 3.661.773 4.611 2.488.006.01.016.016.028.016h.012c.01 0 .02-.004.025-.012 1.276-1.625 3.185-2.492 5.404-2.492zM96.847 16.652h6.86c-.42-1.649-1.556-2.722-3.36-2.722-1.696 0-3.018.918-3.5 2.722zm10.997 1.509c0 .498-.031 1.213-.109 1.493H96.832c.497 1.851 1.975 2.971 3.966 2.987 1 .01 1.847-.26 2.551-.71a2.077 2.077 0 0 1 2.535.226l1.338 1.246c-1.322 1.68-3.593 2.94-6.72 2.94-4.557 0-8.01-3.204-8.01-8.057 0-4.729 3.297-8.027 7.715-8.027 4.573 0 7.637 3.345 7.637 7.902zM119.84 10.26c.125 0 .233 0 .327.015v4.573c-.42-.03-.871-.046-1.105-.046-2.566 0-3.966 1.742-3.966 4.06v7.217h-4.169V10.524h2.094c1.146 0 2.075.929 2.075 2.074v.213h.046c1.182-1.65 2.862-2.551 4.698-2.551zM130.102 26.343c-4.604 0-7.995-3.251-7.995-8.026 0-4.776 3.375-8.058 8.197-8.058 2.473 0 5.04 1.011 6.611 2.987l-1.477 1.273a2.065 2.065 0 0 1-2.443.194 4.662 4.662 0 0 0-2.52-.705c-2.488 0-4.137 1.758-4.137 4.278 0 2.55 1.696 4.309 4.169 4.309.99 0 1.828-.27 2.499-.663a2.068 2.068 0 0 1 2.41.238l1.561 1.374c-1.337 1.555-3.748 2.8-6.875 2.8zM147.31 22.61c2.255 0 4.044-1.773 4.044-4.293 0-2.551-1.742-4.309-4.044-4.309-2.427 0-4.06 1.851-4.06 4.309 0 2.411 1.68 4.293 4.06 4.293zm0 3.733c-4.946 0-8.275-3.39-8.275-8.026 0-4.65 3.329-8.057 8.275-8.057 4.838 0 8.275 3.282 8.275 8.057 0 4.76-3.437 8.026-8.275 8.026z"/><path d="M6.309 16.156c-2.489 0-4.604-.793-6.3-2.286l.807-1.147a2.068 2.068 0 0 1 2.692-.628c.852.475 1.772.718 2.832.718 1.213 0 1.913-.53 1.913-1.292 0-.715-.809-1.073-2.83-1.726C2.855 8.955.631 7.742.631 4.74c0-2.816 2.427-4.667 5.6-4.667 2.162 0 3.92.592 5.693 1.96l-.846 1.276a2.07 2.07 0 0 1-2.67.702c-.764-.393-1.533-.578-2.224-.578-.684 0-1.524.358-1.524 1.167 0 .653.809 1.104 2.333 1.68 3.376 1.244 5.351 1.975 5.351 5.04 0 2.753-1.96 4.837-6.035 4.837z" mask="url(#c)" transform="translate(157.542 10.187)"/></g></g></svg>